<svg xmlns="http://www.w3.org/2000/svg" version="1.1" xmlns:xlink="http://www.w3.org/1999/xlink" xmlns:svgjs="http://svgjs.com/svgjs" width="1440" height="800" preserveAspectRatio="none" viewBox="0 0 1440 800"><g mask="url(&quot;#SvgjsMask1789&quot;)" fill="none"><rect width="1440" height="800" x="0" y="0" fill="url(#SvgjsLinearGradient1790)"></rect><path d="M-44.89 493.59L-44.89 493.59" stroke="#132e65" stroke-width="1.5"></path><path d="M-44.89 493.59L88.83 500.24" stroke="#132e65" stroke-width="1.5"></path><path d="M-44.89 493.59L38.84 662.75" stroke="#132e65" stroke-width="1.5"></path><path d="M-44.89 493.59L-109.21 712.23" stroke="#132e65" stroke-width="1.5"></path><path d="M-44.89 493.59L198.57 640.45" stroke="#132e65" stroke-width="1.5"></path><path d="M-44.89 493.59L244.91 508.8" stroke="#132e65" stroke-width="1.5"></path><path d="M-44.89 493.59L-76.74 810.44" stroke="#132e65" stroke-width="1.5"></path><path d="M-109.21 712.23L-109.21 712.23" stroke="#132e65" stroke-width="1.5"></path><path d="M-109.21 712.23L-76.74 810.44" stroke="#132e65" stroke-width="1.5"></path><path d="M-109.21 712.23L38.84 662.75" stroke="#132e65" stroke-width="1.5"></path><path d="M-76.74 810.44L-76.74 810.44" stroke="#132e65" stroke-width="1.5"></path><path d="M-76.74 810.44L-61.69 980.12" stroke="#132e65" stroke-width="1.5"></path><path d="M-76.74 810.44L38.84 662.75" stroke="#132e65" stroke-width="1.5"></path><path d="M-61.69 980.12L-61.69 980.12" stroke="#132e65" stroke-width="1.5"></path><path d="M-61.69 980.12L106.96 967.69" stroke="#132e65" stroke-width="1.5"></path><path d="M-61.69 980.12L111.07 812.26" stroke="#132e65" stroke-width="1.5"></path><path d="M-61.69 980.12L-109.21 712.23" stroke="#132e65" stroke-width="1.5"></path><path d="M-61.69 980.12L244.92 941.84" stroke="#132e65" stroke-width="1.5"></path><path d="M88.83 500.24L88.83 500.24" stroke="#132e65" stroke-width="1.5"></path><path d="M38.84 662.75L38.84 662.75" stroke="#132e65" stroke-width="1.5"></path><path d="M38.84 662.75L198.57 640.45" stroke="#132e65" stroke-width="1.5"></path><path d="M38.84 662.75L111.07 812.26" stroke="#132e65" stroke-width="1.5"></path><path d="M38.84 662.75L88.83 500.24" stroke="#132e65" stroke-width="1.5"></path><path d="M111.07 812.26L111.07 812.26" stroke="#132e65" stroke-width="1.5"></path><path d="M111.07 812.26L255.61 819.63" stroke="#132e65" stroke-width="1.5"></path><path d="M111.07 812.26L106.96 967.69" stroke="#132e65" stroke-width="1.5"></path><path d="M111.07 812.26L244.92 941.84" stroke="#132e65" stroke-width="1.5"></path><path d="M111.07 812.26L-76.74 810.44" stroke="#132e65" stroke-width="1.5"></path><path d="M111.07 812.26L198.57 640.45" stroke="#132e65" stroke-width="1.5"></path><path d="M106.96 967.69L106.96 967.69" stroke="#132e65" stroke-width="1.5"></path><path d="M106.96 967.69L244.92 941.84" stroke="#132e65" stroke-width="1.5"></path><path d="M106.96 967.69L255.61 819.63" stroke="#132e65" stroke-width="1.5"></path><path d="M106.96 967.69L-76.74 810.44" stroke="#132e65" stroke-width="1.5"></path><path d="M244.91 508.8L244.91 508.8" stroke="#132e65" stroke-width="1.5"></path><path d="M244.91 508.8L198.57 640.45" stroke="#132e65" stroke-width="1.5"></path><path d="M244.91 508.8L88.83 500.24" stroke="#132e65" stroke-width="1.5"></path><path d="M198.57 640.45L198.57 640.45" stroke="#132e65" stroke-width="1.5"></path><path d="M255.61 819.63L255.61 819.63" stroke="#132e65" stroke-width="1.5"></path><path d="M255.61 819.63L244.92 941.84" stroke="#132e65" stroke-width="1.5"></path><path d="M255.61 819.63L388.23 810.75" stroke="#132e65" stroke-width="1.5"></path><path d="M244.92 941.84L244.92 941.84" stroke="#132e65" stroke-width="1.5"></path><path d="M412.19 517.03L412.19 517.03" stroke="#132e65" stroke-width="1.5"></path><path d="M412.19 517.03L390.65 649.65" stroke="#132e65" stroke-width="1.5"></path><path d="M412.19 517.03L543.77 559.6" stroke="#132e65" stroke-width="1.5"></path><path d="M412.19 517.03L502.09 399.24" stroke="#132e65" stroke-width="1.5"></path><path d="M412.19 517.03L244.91 508.8" stroke="#132e65" stroke-width="1.5"></path><path d="M412.19 517.03L536.96 686.23" stroke="#132e65" stroke-width="1.5"></path><path d="M390.65 649.65L390.65 649.65" stroke="#132e65" stroke-width="1.5"></path><path d="M390.65 649.65L536.96 686.23" stroke="#132e65" stroke-width="1.5"></path><path d="M390.65 649.65L388.23 810.75" stroke="#132e65" stroke-width="1.5"></path><path d="M390.65 649.65L543.77 559.6" stroke="#132e65" stroke-width="1.5"></path><path d="M390.65 649.65L198.57 640.45" stroke="#132e65" stroke-width="1.5"></path><path d="M390.65 649.65L244.91 508.8" stroke="#132e65" stroke-width="1.5"></path><path d="M388.23 810.75L388.23 810.75" stroke="#132e65" stroke-width="1.5"></path><path d="M388.23 810.75L557.14 840.17" stroke="#132e65" stroke-width="1.5"></path><path d="M388.23 810.75L406.48 988.04" stroke="#132e65" stroke-width="1.5"></path><path d="M388.23 810.75L536.96 686.23" stroke="#132e65" stroke-width="1.5"></path><path d="M388.23 810.75L244.92 941.84" stroke="#132e65" stroke-width="1.5"></path><path d="M406.48 988.04L406.48 988.04" stroke="#132e65" stroke-width="1.5"></path><path d="M406.48 988.04L244.92 941.84" stroke="#132e65" stroke-width="1.5"></path><path d="M406.48 988.04L557.14 840.17" stroke="#132e65" stroke-width="1.5"></path><path d="M406.48 988.04L255.61 819.63" stroke="#132e65" stroke-width="1.5"></path><path d="M406.48 988.04L650.45 991.39" stroke="#132e65" stroke-width="1.5"></path><path d="M406.48 988.04L641.51 810.55" stroke="#132e65" stroke-width="1.5"></path><path d="M502.09 399.24L502.09 399.24" stroke="#132e65" stroke-width="1.5"></path><path d="M502.09 399.24L543.77 559.6" stroke="#132e65" stroke-width="1.5"></path><path d="M502.09 399.24L692.94 366.79" stroke="#132e65" stroke-width="1.5"></path><path d="M502.09 399.24L675.86 515.72" stroke="#132e65" stroke-width="1.5"></path><path d="M543.77 559.6L543.77 559.6" stroke="#132e65" stroke-width="1.5"></path><path d="M543.77 559.6L536.96 686.23" stroke="#132e65" stroke-width="1.5"></path><path d="M543.77 559.6L675.86 515.72" stroke="#132e65" stroke-width="1.5"></path><path d="M536.96 686.23L536.96 686.23" stroke="#132e65" stroke-width="1.5"></path><path d="M536.96 686.23L557.14 840.17" stroke="#132e65" stroke-width="1.5"></path><path d="M536.96 686.23L641.51 810.55" stroke="#132e65" stroke-width="1.5"></path><path d="M536.96 686.23L700.89 657.04" stroke="#132e65" stroke-width="1.5"></path><path d="M557.14 840.17L557.14 840.17" stroke="#132e65" stroke-width="1.5"></path><path d="M557.14 840.17L641.51 810.55" stroke="#132e65" stroke-width="1.5"></path><path d="M557.14 840.17L650.45 991.39" stroke="#132e65" stroke-width="1.5"></path><path d="M692.94 366.79L692.94 366.79" stroke="#132e65" stroke-width="1.5"></path><path d="M692.94 366.79L828.83 369.46" stroke="#132e65" stroke-width="1.5"></path><path d="M692.94 366.79L675.86 515.72" stroke="#132e65" stroke-width="1.5"></path><path d="M692.94 366.79L796.46 540.26" stroke="#132e65" stroke-width="1.5"></path><path d="M692.94 366.79L816.64 202.49" stroke="#132e65" stroke-width="1.5"></path><path d="M692.94 366.79L543.77 559.6" stroke="#132e65" stroke-width="1.5"></path><path d="M675.86 515.72L675.86 515.72" stroke="#132e65" stroke-width="1.5"></path><path d="M675.86 515.72L796.46 540.26" stroke="#132e65" stroke-width="1.5"></path><path d="M675.86 515.72L700.89 657.04" stroke="#132e65" stroke-width="1.5"></path><path d="M700.89 657.04L700.89 657.04" stroke="#132e65" stroke-width="1.5"></path><path d="M700.89 657.04L824.98 638.78" stroke="#132e65" stroke-width="1.5"></path><path d="M700.89 657.04L796.46 540.26" stroke="#132e65" stroke-width="1.5"></path><path d="M700.89 657.04L641.51 810.55" stroke="#132e65" stroke-width="1.5"></path><path d="M700.89 657.04L816.47 793.94" stroke="#132e65" stroke-width="1.5"></path><path d="M641.51 810.55L641.51 810.55" stroke="#132e65" stroke-width="1.5"></path><path d="M641.51 810.55L816.47 793.94" stroke="#132e65" stroke-width="1.5"></path><path d="M650.45 991.39L650.45 991.39" stroke="#132e65" stroke-width="1.5"></path><path d="M650.45 991.39L641.51 810.55" stroke="#132e65" stroke-width="1.5"></path><path d="M650.45 991.39L837.05 955.15" stroke="#132e65" stroke-width="1.5"></path><path d="M650.45 991.39L816.47 793.94" stroke="#132e65" stroke-width="1.5"></path><path d="M816.64 202.49L816.64 202.49" stroke="#132e65" stroke-width="1.5"></path><path d="M816.64 202.49L828.83 369.46" stroke="#132e65" stroke-width="1.5"></path><path d="M828.83 369.46L828.83 369.46" stroke="#132e65" stroke-width="1.5"></path><path d="M828.83 369.46L944.65 385" stroke="#132e65" stroke-width="1.5"></path><path d="M828.83 369.46L796.46 540.26" stroke="#132e65" stroke-width="1.5"></path><path d="M828.83 369.46L977.94 504.32" stroke="#132e65" stroke-width="1.5"></path><path d="M828.83 369.46L675.86 515.72" stroke="#132e65" stroke-width="1.5"></path><path d="M796.46 540.26L796.46 540.26" stroke="#132e65" stroke-width="1.5"></path><path d="M796.46 540.26L824.98 638.78" stroke="#132e65" stroke-width="1.5"></path><path d="M824.98 638.78L824.98 638.78" stroke="#132e65" stroke-width="1.5"></path><path d="M824.98 638.78L949.19 644.59" stroke="#132e65" stroke-width="1.5"></path><path d="M824.98 638.78L816.47 793.94" stroke="#132e65" stroke-width="1.5"></path><path d="M816.47 793.94L816.47 793.94" stroke="#132e65" stroke-width="1.5"></path><path d="M816.47 793.94L975.95 824.84" stroke="#132e65" stroke-width="1.5"></path><path d="M816.47 793.94L837.05 955.15" stroke="#132e65" stroke-width="1.5"></path><path d="M837.05 955.15L837.05 955.15" stroke="#132e65" stroke-width="1.5"></path><path d="M837.05 955.15L1009.4 975.53" stroke="#132e65" stroke-width="1.5"></path><path d="M837.05 955.15L975.95 824.84" stroke="#132e65" stroke-width="1.5"></path><path d="M837.05 955.15L641.51 810.55" stroke="#132e65" stroke-width="1.5"></path><path d="M837.05 955.15L1125.56 942.69" stroke="#132e65" stroke-width="1.5"></path><path d="M985.15 -40.57L985.15 -40.57" stroke="#132e65" stroke-width="1.5"></path><path d="M985.15 -40.57L1002.11 111.66" stroke="#132e65" stroke-width="1.5"></path><path d="M985.15 -40.57L1162.33 -70.25" stroke="#132e65" stroke-width="1.5"></path><path d="M985.15 -40.57L1142.24 100.44" stroke="#132e65" stroke-width="1.5"></path><path d="M985.15 -40.57L1264.3 -107.31" stroke="#132e65" stroke-width="1.5"></path><path d="M985.15 -40.57L816.64 202.49" stroke="#132e65" stroke-width="1.5"></path><path d="M1002.11 111.66L1002.11 111.66" stroke="#132e65" stroke-width="1.5"></path><path d="M1002.11 111.66L1142.24 100.44" stroke="#132e65" stroke-width="1.5"></path><path d="M944.65 385L944.65 385" stroke="#132e65" stroke-width="1.5"></path><path d="M944.65 385L977.94 504.32" stroke="#132e65" stroke-width="1.5"></path><path d="M944.65 385L1097.8 258.49" stroke="#132e65" stroke-width="1.5"></path><path d="M944.65 385L796.46 540.26" stroke="#132e65" stroke-width="1.5"></path><path d="M977.94 504.32L977.94 504.32" stroke="#132e65" stroke-width="1.5"></path><path d="M977.94 504.32L949.19 644.59" stroke="#132e65" stroke-width="1.5"></path><path d="M949.19 644.59L949.19 644.59" stroke="#132e65" stroke-width="1.5"></path><path d="M949.19 644.59L1093.56 678.88" stroke="#132e65" stroke-width="1.5"></path><path d="M949.19 644.59L975.95 824.84" stroke="#132e65" stroke-width="1.5"></path><path d="M949.19 644.59L796.46 540.26" stroke="#132e65" stroke-width="1.5"></path><path d="M949.19 644.59L816.47 793.94" stroke="#132e65" stroke-width="1.5"></path><path d="M975.95 824.84L975.95 824.84" stroke="#132e65" stroke-width="1.5"></path><path d="M975.95 824.84L1009.4 975.53" stroke="#132e65" stroke-width="1.5"></path><path d="M975.95 824.84L1139.41 830.9" stroke="#132e65" stroke-width="1.5"></path><path d="M1009.4 975.53L1009.4 975.53" stroke="#132e65" stroke-width="1.5"></path><path d="M1009.4 975.53L1125.56 942.69" stroke="#132e65" stroke-width="1.5"></path><path d="M1162.33 -70.25L1162.33 -70.25" stroke="#132e65" stroke-width="1.5"></path><path d="M1162.33 -70.25L1264.3 -107.31" stroke="#132e65" stroke-width="1.5"></path><path d="M1162.33 -70.25L1142.24 100.44" stroke="#132e65" stroke-width="1.5"></path><path d="M1162.33 -70.25L1301.59 49.75" stroke="#132e65" stroke-width="1.5"></path><path d="M1162.33 -70.25L1002.11 111.66" stroke="#132e65" stroke-width="1.5"></path><path d="M1142.24 100.44L1142.24 100.44" stroke="#132e65" stroke-width="1.5"></path><path d="M1142.24 100.44L1097.8 258.49" stroke="#132e65" stroke-width="1.5"></path><path d="M1142.24 100.44L1301.59 49.75" stroke="#132e65" stroke-width="1.5"></path><path d="M1097.8 258.49L1097.8 258.49" stroke="#132e65" stroke-width="1.5"></path><path d="M1097.8 258.49L1002.11 111.66" stroke="#132e65" stroke-width="1.5"></path><path d="M1156.75 499.25L1156.75 499.25" stroke="#132e65" stroke-width="1.5"></path><path d="M1156.75 499.25L1300.63 545.26" stroke="#132e65" stroke-width="1.5"></path><path d="M1156.75 499.25L977.94 504.32" stroke="#132e65" stroke-width="1.5"></path><path d="M1156.75 499.25L1093.56 678.88" stroke="#132e65" stroke-width="1.5"></path><path d="M1093.56 678.88L1093.56 678.88" stroke="#132e65" stroke-width="1.5"></path><path d="M1093.56 678.88L1139.41 830.9" stroke="#132e65" stroke-width="1.5"></path><path d="M1093.56 678.88L975.95 824.84" stroke="#132e65" stroke-width="1.5"></path><path d="M1093.56 678.88L977.94 504.32" stroke="#132e65" stroke-width="1.5"></path><path d="M1093.56 678.88L1284.64 822.63" stroke="#132e65" stroke-width="1.5"></path><path d="M1139.41 830.9L1139.41 830.9" stroke="#132e65" stroke-width="1.5"></path><path d="M1139.41 830.9L1125.56 942.69" stroke="#132e65" stroke-width="1.5"></path><path d="M1139.41 830.9L1284.64 822.63" stroke="#132e65" stroke-width="1.5"></path><path d="M1125.56 942.69L1125.56 942.69" stroke="#132e65" stroke-width="1.5"></path><path d="M1125.56 942.69L1262.57 947.74" stroke="#132e65" stroke-width="1.5"></path><path d="M1125.56 942.69L975.95 824.84" stroke="#132e65" stroke-width="1.5"></path><path d="M1125.56 942.69L1284.64 822.63" stroke="#132e65" stroke-width="1.5"></path><path d="M1125.56 942.69L1093.56 678.88" stroke="#132e65" stroke-width="1.5"></path><path d="M1264.3 -107.31L1264.3 -107.31" stroke="#132e65" stroke-width="1.5"></path><path d="M1264.3 -107.31L1301.59 49.75" stroke="#132e65" stroke-width="1.5"></path><path d="M1264.3 -107.31L1142.24 100.44" stroke="#132e65" stroke-width="1.5"></path><path d="M1264.3 -107.31L1443.94 90.48" stroke="#132e65" stroke-width="1.5"></path><path d="M1301.59 49.75L1301.59 49.75" stroke="#132e65" stroke-width="1.5"></path><path d="M1301.59 49.75L1306.36 193.34" stroke="#132e65" stroke-width="1.5"></path><path d="M1301.59 49.75L1443.94 90.48" stroke="#132e65" stroke-width="1.5"></path><path d="M1301.59 49.75L1434.24 235.1" stroke="#132e65" stroke-width="1.5"></path><path d="M1306.36 193.34L1306.36 193.34" stroke="#132e65" stroke-width="1.5"></path><path d="M1306.36 193.34L1434.24 235.1" stroke="#132e65" stroke-width="1.5"></path><path d="M1306.36 193.34L1443.94 90.48" stroke="#132e65" stroke-width="1.5"></path><path d="M1306.08 368.82L1306.08 368.82" stroke="#132e65" stroke-width="1.5"></path><path d="M1306.08 368.82L1417.68 406.3" stroke="#132e65" stroke-width="1.5"></path><path d="M1306.08 368.82L1306.36 193.34" stroke="#132e65" stroke-width="1.5"></path><path d="M1306.08 368.82L1300.63 545.26" stroke="#132e65" stroke-width="1.5"></path><path d="M1300.63 545.26L1300.63 545.26" stroke="#132e65" stroke-width="1.5"></path><path d="M1300.63 545.26L1429.62 554.14" stroke="#132e65" stroke-width="1.5"></path><path d="M1300.63 545.26L1417.68 406.3" stroke="#132e65" stroke-width="1.5"></path><path d="M1284.64 822.63L1284.64 822.63" stroke="#132e65" stroke-width="1.5"></path><path d="M1284.64 822.63L1262.57 947.74" stroke="#132e65" stroke-width="1.5"></path><path d="M1284.64 822.63L1460.18 829.35" stroke="#132e65" stroke-width="1.5"></path><path d="M1284.64 822.63L1388.61 1011.48" stroke="#132e65" stroke-width="1.5"></path><path d="M1262.57 947.74L1262.57 947.74" stroke="#132e65" stroke-width="1.5"></path><path d="M1262.57 947.74L1388.61 1011.48" stroke="#132e65" stroke-width="1.5"></path><path d="M1262.57 947.74L1139.41 830.9" stroke="#132e65" stroke-width="1.5"></path><path d="M1262.57 947.74L1460.18 829.35" stroke="#132e65" stroke-width="1.5"></path><path d="M1262.57 947.74L1009.4 975.53" stroke="#132e65" stroke-width="1.5"></path><path d="M1443.94 90.48L1443.94 90.48" stroke="#132e65" stroke-width="1.5"></path><path d="M1443.94 90.48L1434.24 235.1" stroke="#132e65" stroke-width="1.5"></path><path d="M1443.94 90.48L1590.3 39.83" stroke="#132e65" stroke-width="1.5"></path><path d="M1443.94 90.48L1598.71 241.88" stroke="#132e65" stroke-width="1.5"></path><path d="M1434.24 235.1L1434.24 235.1" stroke="#132e65" stroke-width="1.5"></path><path d="M1434.24 235.1L1598.71 241.88" stroke="#132e65" stroke-width="1.5"></path><path d="M1434.24 235.1L1417.68 406.3" stroke="#132e65" stroke-width="1.5"></path><path d="M1434.24 235.1L1567.61 355.99" stroke="#132e65" stroke-width="1.5"></path><path d="M1417.68 406.3L1417.68 406.3" stroke="#132e65" stroke-width="1.5"></path><path d="M1417.68 406.3L1429.62 554.14" stroke="#132e65" stroke-width="1.5"></path><path d="M1417.68 406.3L1567.61 355.99" stroke="#132e65" stroke-width="1.5"></path><path d="M1417.68 406.3L1539.73 550.52" stroke="#132e65" stroke-width="1.5"></path><path d="M1429.62 554.14L1429.62 554.14" stroke="#132e65" stroke-width="1.5"></path><path d="M1429.62 554.14L1539.73 550.52" stroke="#132e65" stroke-width="1.5"></path><path d="M1429.62 554.14L1306.08 368.82" stroke="#132e65" stroke-width="1.5"></path><path d="M1429.62 554.14L1607.31 710.97" stroke="#132e65" stroke-width="1.5"></path><path d="M1460.18 829.35L1460.18 829.35" stroke="#132e65" stroke-width="1.5"></path><path d="M1460.18 829.35L1549.69 856.46" stroke="#132e65" stroke-width="1.5"></path><path d="M1460.18 829.35L1607.31 710.97" stroke="#132e65" stroke-width="1.5"></path><path d="M1388.61 1011.48L1388.61 1011.48" stroke="#132e65" stroke-width="1.5"></path><path d="M1388.61 1011.48L1577.12 981.83" stroke="#132e65" stroke-width="1.5"></path><path d="M1388.61 1011.48L1460.18 829.35" stroke="#132e65" stroke-width="1.5"></path><path d="M1590.3 39.83L1590.3 39.83" stroke="#132e65" stroke-width="1.5"></path><path d="M1590.3 39.83L1598.71 241.88" stroke="#132e65" stroke-width="1.5"></path><path d="M1590.3 39.83L1434.24 235.1" stroke="#132e65" stroke-width="1.5"></path><path d="M1590.3 39.83L1301.59 49.75" stroke="#132e65" stroke-width="1.5"></path><path d="M1590.3 39.83L1567.61 355.99" stroke="#132e65" stroke-width="1.5"></path><path d="M1598.71 241.88L1598.71 241.88" stroke="#132e65" stroke-width="1.5"></path><path d="M1598.71 241.88L1567.61 355.99" stroke="#132e65" stroke-width="1.5"></path><path d="M1567.61 355.99L1567.61 355.99" stroke="#132e65" stroke-width="1.5"></path><path d="M1567.61 355.99L1539.73 550.52" stroke="#132e65" stroke-width="1.5"></path><path d="M1567.61 355.99L1429.62 554.14" stroke="#132e65" stroke-width="1.5"></path><path d="M1539.73 550.52L1539.73 550.52" stroke="#132e65" stroke-width="1.5"></path><path d="M1539.73 550.52L1607.31 710.97" stroke="#132e65" stroke-width="1.5"></path><path d="M1539.73 550.52L1300.63 545.26" stroke="#132e65" stroke-width="1.5"></path><path d="M1607.31 710.97L1607.31 710.97" stroke="#132e65" stroke-width="1.5"></path><path d="M1607.31 710.97L1549.69 856.46" stroke="#132e65" stroke-width="1.5"></path><path d="M1607.31 710.97L1577.12 981.83" stroke="#132e65" stroke-width="1.5"></path><path d="M1607.31 710.97L1284.64 822.63" stroke="#132e65" stroke-width="1.5"></path><path d="M1549.69 856.46L1549.69 856.46" stroke="#132e65" stroke-width="1.5"></path><path d="M1549.69 856.46L1577.12 981.83" stroke="#132e65" stroke-width="1.5"></path><path d="M1577.12 981.83L1577.12 981.83" stroke="#132e65" stroke-width="1.5"></path><path d="M1577.12 981.83L1460.18 829.35" stroke="#132e65" stroke-width="1.5"></path><circle r="5" cx="-44.89" cy="493.59" fill="#132e65"></circle><circle r="5" cx="-109.21" cy="712.23" fill="#132e65"></circle><circle r="5" cx="-76.74" cy="810.44" fill="#132e65"></circle><circle r="5" cx="-61.69" cy="980.12" fill="#132e65"></circle><circle r="5" cx="88.83" cy="500.24" fill="#132e65"></circle><circle r="5" cx="38.84" cy="662.75" fill="#132e65"></circle><circle r="5" cx="111.07" cy="812.26" fill="#132e65"></circle><circle r="5" cx="106.96" cy="967.69" fill="#132e65"></circle><circle r="5" cx="244.91" cy="508.8" fill="#132e65"></circle><circle r="5" cx="198.57" cy="640.45" fill="#132e65"></circle><circle r="5" cx="255.61" cy="819.63" fill="#132e65"></circle><circle r="5" cx="244.92" cy="941.84" fill="#132e65"></circle><circle r="5" cx="412.19" cy="517.03" fill="#132e65"></circle><circle r="5" cx="390.65" cy="649.65" fill="#132e65"></circle><circle r="5" cx="388.23" cy="810.75" fill="#132e65"></circle><circle r="5" cx="406.48" cy="988.04" fill="#132e65"></circle><circle r="5" cx="502.09" cy="399.24" fill="#132e65"></circle><circle r="5" cx="543.77" cy="559.6" fill="#132e65"></circle><circle r="5" cx="536.96" cy="686.23" fill="#132e65"></circle><circle r="5" cx="557.14" cy="840.17" fill="#132e65"></circle><circle r="5" cx="692.94" cy="366.79" fill="#132e65"></circle><circle r="5" cx="675.86" cy="515.72" fill="#132e65"></circle><circle r="5" cx="700.89" cy="657.04" fill="#132e65"></circle><circle r="5" cx="641.51" cy="810.55" fill="#132e65"></circle><circle r="5" cx="650.45" cy="991.39" fill="#132e65"></circle><circle r="5" cx="816.64" cy="202.49" fill="#132e65"></circle><circle r="5" cx="828.83" cy="369.46" fill="#132e65"></circle><circle r="5" cx="796.46" cy="540.26" fill="#132e65"></circle><circle r="5" cx="824.98" cy="638.78" fill="#132e65"></circle><circle r="5" cx="816.47" cy="793.94" fill="#132e65"></circle><circle r="5" cx="837.05" cy="955.15" fill="#132e65"></circle><circle r="5" cx="985.15" cy="-40.57" fill="#132e65"></circle><circle r="5" cx="1002.11" cy="111.66" fill="#132e65"></circle><circle r="5" cx="944.65" cy="385" fill="#132e65"></circle><circle r="5" cx="977.94" cy="504.32" fill="#132e65"></circle><circle r="5" cx="949.19" cy="644.59" fill="#132e65"></circle><circle r="5" cx="975.95" cy="824.84" fill="#132e65"></circle><circle r="5" cx="1009.4" cy="975.53" fill="#132e65"></circle><circle r="5" cx="1162.33" cy="-70.25" fill="#132e65"></circle><circle r="5" cx="1142.24" cy="100.44" fill="#132e65"></circle><circle r="5" cx="1097.8" cy="258.49" fill="#132e65"></circle><circle r="5" cx="1156.75" cy="499.25" fill="#132e65"></circle><circle r="5" cx="1093.56" cy="678.88" fill="#132e65"></circle><circle r="5" cx="1139.41" cy="830.9" fill="#132e65"></circle><circle r="5" cx="1125.56" cy="942.69" fill="#132e65"></circle><circle r="5" cx="1264.3" cy="-107.31" fill="#132e65"></circle><circle r="5" cx="1301.59" cy="49.75" fill="#132e65"></circle><circle r="5" cx="1306.36" cy="193.34" fill="#132e65"></circle><circle r="5" cx="1306.08" cy="368.82" fill="#132e65"></circle><circle r="5" cx="1300.63" cy="545.26" fill="#132e65"></circle><circle r="5" cx="1284.64" cy="822.63" fill="#132e65"></circle><circle r="5" cx="1262.57" cy="947.74" fill="#132e65"></circle><circle r="5" cx="1443.94" cy="90.48" fill="#132e65"></circle><circle r="5" cx="1434.24" cy="235.1" fill="#132e65"></circle><circle r="5" cx="1417.68" cy="406.3" fill="#132e65"></circle><circle r="5" cx="1429.62" cy="554.14" fill="#132e65"></circle><circle r="5" cx="1460.18" cy="829.35" fill="#132e65"></circle><circle r="5" cx="1388.61" cy="1011.48" fill="#132e65"></circle><circle r="5" cx="1590.3" cy="39.83" fill="#132e65"></circle><circle r="5" cx="1598.71" cy="241.88" fill="#132e65"></circle><circle r="5" cx="1567.61" cy="355.99" fill="#132e65"></circle><circle r="5" cx="1539.73" cy="550.52" fill="#132e65"></circle><circle r="5" cx="1607.31" cy="710.97" fill="#132e65"></circle><circle r="5" cx="1549.69" cy="856.46" fill="#132e65"></circle><circle r="5" cx="1577.12" cy="981.83" fill="#132e65"></circle><path d="M-56.19 972.96L-56.19 972.96" stroke="hsl(228.5, 77.2%, 51.5%)" stroke-width="1.5"></path><path d="M-56.19 972.96L-85 848.91" stroke="hsl(228.5, 77.2%, 51.5%)" stroke-width="1.5"></path><path d="M-56.19 972.96L70.77 861.02" stroke="hsl(228.5, 77.2%, 51.5%)" stroke-width="1.5"></path><path d="M106.25 677.44L106.25 677.44" stroke="hsl(228.5, 77.2%, 51.5%)" stroke-width="1.5"></path><path d="M106.25 677.44L203.57 644.96" stroke="hsl(228.5, 77.2%, 51.5%)" stroke-width="1.5"></path><path d="M106.25 677.44L-52.4 687.25" stroke="hsl(228.5, 77.2%, 51.5%)" stroke-width="1.5"></path><path d="M106.25 677.44L205.45 804.65" stroke="hsl(228.5, 77.2%, 51.5%)" stroke-width="1.5"></path><path d="M106.25 677.44L70.77 861.02" stroke="hsl(228.5, 77.2%, 51.5%)" stroke-width="1.5"></path><path d="M106.25 677.44L343.84 676.14" stroke="hsl(228.5, 77.2%, 51.5%)" stroke-width="1.5"></path><path d="M106.25 677.44L-85 848.91" stroke="hsl(228.5, 77.2%, 51.5%)" stroke-width="1.5"></path><path d="M203.57 644.96L203.57 644.96" stroke="hsl(228.5, 77.2%, 51.5%)" stroke-width="1.5"></path><path d="M203.57 644.96L343.84 676.14" stroke="hsl(228.5, 77.2%, 51.5%)" stroke-width="1.5"></path><path d="M203.57 644.96L205.45 804.65" stroke="hsl(228.5, 77.2%, 51.5%)" stroke-width="1.5"></path><path d="M841.45 549.47L841.45 549.47" stroke="hsl(228.5, 77.2%, 51.5%)" stroke-width="1.5"></path><path d="M841.45 549.47L819.87 668.31" stroke="hsl(228.5, 77.2%, 51.5%)" stroke-width="1.5"></path><path d="M841.45 549.47L1008.97 562.37" stroke="hsl(228.5, 77.2%, 51.5%)" stroke-width="1.5"></path><path d="M841.45 549.47L993.38 402.19" stroke="hsl(228.5, 77.2%, 51.5%)" stroke-width="1.5"></path><path d="M841.45 549.47L675.19 689.38" stroke="hsl(228.5, 77.2%, 51.5%)" stroke-width="1.5"></path><path d="M841.45 549.47L998.17 710.95" stroke="hsl(228.5, 77.2%, 51.5%)" stroke-width="1.5"></path><path d="M841.45 549.47L828.28 817.01" stroke="hsl(228.5, 77.2%, 51.5%)" stroke-width="1.5"></path><path d="M1011.08 965.5L1011.08 965.5" stroke="hsl(228.5, 77.2%, 51.5%)" stroke-width="1.5"></path><path d="M1011.08 965.5L1121.07 981.02" stroke="hsl(228.5, 77.2%, 51.5%)" stroke-width="1.5"></path><path d="M1011.08 965.5L1002.32 826.46" stroke="hsl(228.5, 77.2%, 51.5%)" stroke-width="1.5"></path><path d="M1287.83 361.45L1287.83 361.45" stroke="hsl(228.5, 77.2%, 51.5%)" stroke-width="1.5"></path><path d="M1287.83 361.45L1276.87 234.08" stroke="hsl(228.5, 77.2%, 51.5%)" stroke-width="1.5"></path><path d="M1287.83 361.45L1441.93 379.19" stroke="hsl(228.5, 77.2%, 51.5%)" stroke-width="1.5"></path><path d="M1287.83 361.45L1102.97 383.76" stroke="hsl(228.5, 77.2%, 51.5%)" stroke-width="1.5"></path><path d="M1287.83 361.45L1448.49 250.82" stroke="hsl(228.5, 77.2%, 51.5%)" stroke-width="1.5"></path><path d="M1287.83 361.45L1269.65 557.25" stroke="hsl(228.5, 77.2%, 51.5%)" stroke-width="1.5"></path><path d="M1253.94 855.4L1253.94 855.4" stroke="hsl(228.5, 77.2%, 51.5%)" stroke-width="1.5"></path><path d="M1253.94 855.4L1265.38 972.64" stroke="hsl(228.5, 77.2%, 51.5%)" stroke-width="1.5"></path><path d="M1253.94 855.4L1130.38 793.04" stroke="hsl(228.5, 77.2%, 51.5%)" stroke-width="1.5"></path><path d="M1253.94 855.4L1121.07 981.02" stroke="hsl(228.5, 77.2%, 51.5%)" stroke-width="1.5"></path><path d="M1253.94 855.4L1436.39 808.45" stroke="hsl(228.5, 77.2%, 51.5%)" stroke-width="1.5"></path><path d="M1253.94 855.4L1277.51 661.31" stroke="hsl(228.5, 77.2%, 51.5%)" stroke-width="1.5"></path><path d="M1392.43 -50.35L1392.43 -50.35" stroke="hsl(228.5, 77.2%, 51.5%)" stroke-width="1.5"></path><path d="M1392.43 -50.35L1414.9 93.32" stroke="hsl(228.5, 77.2%, 51.5%)" stroke-width="1.5"></path><path d="M1392.43 -50.35L1250.15 -86.72" stroke="hsl(228.5, 77.2%, 51.5%)" stroke-width="1.5"></path><path d="M1392.43 -50.35L1275.23 69.89" stroke="hsl(228.5, 77.2%, 51.5%)" stroke-width="1.5"></path><path d="M1392.43 -50.35L1562.17 -79.92" stroke="hsl(228.5, 77.2%, 51.5%)" stroke-width="1.5"></path><path d="M1392.43 -50.35L1594.51 39.6" stroke="hsl(228.5, 77.2%, 51.5%)" stroke-width="1.5"></path><path d="M1392.43 -50.35L1153.92 -99.52" stroke="hsl(228.5, 77.2%, 51.5%)" stroke-width="1.5"></path><path d="M1414.9 93.32L1414.9 93.32" stroke="hsl(228.5, 77.2%, 51.5%)" stroke-width="1.5"></path><path d="M1414.9 93.32L1275.23 69.89" stroke="hsl(228.5, 77.2%, 51.5%)" stroke-width="1.5"></path><path d="M1414.9 93.32L1448.49 250.82" stroke="hsl(228.5, 77.2%, 51.5%)" stroke-width="1.5"></path><path d="M1414.9 93.32L1594.51 39.6" stroke="hsl(228.5, 77.2%, 51.5%)" stroke-width="1.5"></path><path d="M1414.9 93.32L1276.87 234.08" stroke="hsl(228.5, 77.2%, 51.5%)" stroke-width="1.5"></path><path d="M1441.93 379.19L1441.93 379.19" stroke="hsl(228.5, 77.2%, 51.5%)" stroke-width="1.5"></path><path d="M1441.93 379.19L1448.49 250.82" stroke="hsl(228.5, 77.2%, 51.5%)" stroke-width="1.5"></path><path d="M1441.93 379.19L1578.64 363.75" stroke="hsl(228.5, 77.2%, 51.5%)" stroke-width="1.5"></path><path d="M1441.93 379.19L1574.91 498.5" stroke="hsl(228.5, 77.2%, 51.5%)" stroke-width="1.5"></path><path d="M-52.4 687.25L-52.4 687.25" stroke="hsl(228.5, 77.2%, 51.5%)" stroke-width="1.5"></path><path d="M-52.4 687.25L-85 848.91" stroke="hsl(228.5, 77.2%, 51.5%)" stroke-width="1.5"></path><path d="M-52.4 687.25L70.77 861.02" stroke="hsl(228.5, 77.2%, 51.5%)" stroke-width="1.5"></path><path d="M-85 848.91L-85 848.91" stroke="hsl(228.5, 77.2%, 51.5%)" stroke-width="1.5"></path><path d="M-85 848.91L70.77 861.02" stroke="hsl(228.5, 77.2%, 51.5%)" stroke-width="1.5"></path><path d="M70.77 861.02L70.77 861.02" stroke="hsl(228.5, 77.2%, 51.5%)" stroke-width="1.5"></path><path d="M70.77 861.02L205.45 804.65" stroke="hsl(228.5, 77.2%, 51.5%)" stroke-width="1.5"></path><path d="M70.77 861.02L232.48 954.48" stroke="hsl(228.5, 77.2%, 51.5%)" stroke-width="1.5"></path><path d="M205.45 804.65L205.45 804.65" stroke="hsl(228.5, 77.2%, 51.5%)" stroke-width="1.5"></path><path d="M205.45 804.65L232.48 954.48" stroke="hsl(228.5, 77.2%, 51.5%)" stroke-width="1.5"></path><path d="M205.45 804.65L343.84 676.14" stroke="hsl(228.5, 77.2%, 51.5%)" stroke-width="1.5"></path><path d="M205.45 804.65L400.45 862.3" stroke="hsl(228.5, 77.2%, 51.5%)" stroke-width="1.5"></path><path d="M232.48 954.48L232.48 954.48" stroke="hsl(228.5, 77.2%, 51.5%)" stroke-width="1.5"></path><path d="M232.48 954.48L410 979.89" stroke="hsl(228.5, 77.2%, 51.5%)" stroke-width="1.5"></path><path d="M343.84 676.14L343.84 676.14" stroke="hsl(228.5, 77.2%, 51.5%)" stroke-width="1.5"></path><path d="M400.45 862.3L400.45 862.3" stroke="hsl(228.5, 77.2%, 51.5%)" stroke-width="1.5"></path><path d="M400.45 862.3L410 979.89" stroke="hsl(228.5, 77.2%, 51.5%)" stroke-width="1.5"></path><path d="M400.45 862.3L554.77 828.06" stroke="hsl(228.5, 77.2%, 51.5%)" stroke-width="1.5"></path><path d="M410 979.89L410 979.89" stroke="hsl(228.5, 77.2%, 51.5%)" stroke-width="1.5"></path><path d="M555.43 695.55L555.43 695.55" stroke="hsl(228.5, 77.2%, 51.5%)" stroke-width="1.5"></path><path d="M555.43 695.55L675.19 689.38" stroke="hsl(228.5, 77.2%, 51.5%)" stroke-width="1.5"></path><path d="M555.43 695.55L554.77 828.06" stroke="hsl(228.5, 77.2%, 51.5%)" stroke-width="1.5"></path><path d="M555.43 695.55L692.66 818.52" stroke="hsl(228.5, 77.2%, 51.5%)" stroke-width="1.5"></path><path d="M555.43 695.55L343.84 676.14" stroke="hsl(228.5, 77.2%, 51.5%)" stroke-width="1.5"></path><path d="M555.43 695.55L400.45 862.3" stroke="hsl(228.5, 77.2%, 51.5%)" stroke-width="1.5"></path><path d="M555.43 695.55L819.87 668.31" stroke="hsl(228.5, 77.2%, 51.5%)" stroke-width="1.5"></path><path d="M554.77 828.06L554.77 828.06" stroke="hsl(228.5, 77.2%, 51.5%)" stroke-width="1.5"></path><path d="M554.77 828.06L692.66 818.52" stroke="hsl(228.5, 77.2%, 51.5%)" stroke-width="1.5"></path><path d="M675.19 689.38L675.19 689.38" stroke="hsl(228.5, 77.2%, 51.5%)" stroke-width="1.5"></path><path d="M675.19 689.38L692.66 818.52" stroke="hsl(228.5, 77.2%, 51.5%)" stroke-width="1.5"></path><path d="M675.19 689.38L819.87 668.31" stroke="hsl(228.5, 77.2%, 51.5%)" stroke-width="1.5"></path><path d="M675.19 689.38L554.77 828.06" stroke="hsl(228.5, 77.2%, 51.5%)" stroke-width="1.5"></path><path d="M692.66 818.52L692.66 818.52" stroke="hsl(228.5, 77.2%, 51.5%)" stroke-width="1.5"></path><path d="M692.66 818.52L828.28 817.01" stroke="hsl(228.5, 77.2%, 51.5%)" stroke-width="1.5"></path><path d="M819.87 668.31L819.87 668.31" stroke="hsl(228.5, 77.2%, 51.5%)" stroke-width="1.5"></path><path d="M819.87 668.31L828.28 817.01" stroke="hsl(228.5, 77.2%, 51.5%)" stroke-width="1.5"></path><path d="M819.87 668.31L998.17 710.95" stroke="hsl(228.5, 77.2%, 51.5%)" stroke-width="1.5"></path><path d="M819.87 668.31L692.66 818.52" stroke="hsl(228.5, 77.2%, 51.5%)" stroke-width="1.5"></path><path d="M819.87 668.31L1008.97 562.37" stroke="hsl(228.5, 77.2%, 51.5%)" stroke-width="1.5"></path><path d="M828.28 817.01L828.28 817.01" stroke="hsl(228.5, 77.2%, 51.5%)" stroke-width="1.5"></path><path d="M825.75 996.54L825.75 996.54" stroke="hsl(228.5, 77.2%, 51.5%)" stroke-width="1.5"></path><path d="M825.75 996.54L828.28 817.01" stroke="hsl(228.5, 77.2%, 51.5%)" stroke-width="1.5"></path><path d="M825.75 996.54L1011.08 965.5" stroke="hsl(228.5, 77.2%, 51.5%)" stroke-width="1.5"></path><path d="M825.75 996.54L692.66 818.52" stroke="hsl(228.5, 77.2%, 51.5%)" stroke-width="1.5"></path><path d="M825.75 996.54L1002.32 826.46" stroke="hsl(228.5, 77.2%, 51.5%)" stroke-width="1.5"></path><path d="M825.75 996.54L1121.07 981.02" stroke="hsl(228.5, 77.2%, 51.5%)" stroke-width="1.5"></path><path d="M993.38 402.19L993.38 402.19" stroke="hsl(228.5, 77.2%, 51.5%)" stroke-width="1.5"></path><path d="M993.38 402.19L1102.97 383.76" stroke="hsl(228.5, 77.2%, 51.5%)" stroke-width="1.5"></path><path d="M993.38 402.19L1008.97 562.37" stroke="hsl(228.5, 77.2%, 51.5%)" stroke-width="1.5"></path><path d="M993.38 402.19L1121.08 521.77" stroke="hsl(228.5, 77.2%, 51.5%)" stroke-width="1.5"></path><path d="M993.38 402.19L1124.36 199.62" stroke="hsl(228.5, 77.2%, 51.5%)" stroke-width="1.5"></path><path d="M993.38 402.19L1287.83 361.45" stroke="hsl(228.5, 77.2%, 51.5%)" stroke-width="1.5"></path><path d="M1008.97 562.37L1008.97 562.37" stroke="hsl(228.5, 77.2%, 51.5%)" stroke-width="1.5"></path><path d="M1008.97 562.37L1121.08 521.77" stroke="hsl(228.5, 77.2%, 51.5%)" stroke-width="1.5"></path><path d="M998.17 710.95L998.17 710.95" stroke="hsl(228.5, 77.2%, 51.5%)" stroke-width="1.5"></path><path d="M998.17 710.95L1099.8 705.42" stroke="hsl(228.5, 77.2%, 51.5%)" stroke-width="1.5"></path><path d="M998.17 710.95L1002.32 826.46" stroke="hsl(228.5, 77.2%, 51.5%)" stroke-width="1.5"></path><path d="M998.17 710.95L1008.97 562.37" stroke="hsl(228.5, 77.2%, 51.5%)" stroke-width="1.5"></path><path d="M998.17 710.95L1130.38 793.04" stroke="hsl(228.5, 77.2%, 51.5%)" stroke-width="1.5"></path><path d="M1002.32 826.46L1002.32 826.46" stroke="hsl(228.5, 77.2%, 51.5%)" stroke-width="1.5"></path><path d="M1002.32 826.46L1130.38 793.04" stroke="hsl(228.5, 77.2%, 51.5%)" stroke-width="1.5"></path><path d="M1153.92 -99.52L1153.92 -99.52" stroke="hsl(228.5, 77.2%, 51.5%)" stroke-width="1.5"></path><path d="M1153.92 -99.52L1250.15 -86.72" stroke="hsl(228.5, 77.2%, 51.5%)" stroke-width="1.5"></path><path d="M1153.92 -99.52L1275.23 69.89" stroke="hsl(228.5, 77.2%, 51.5%)" stroke-width="1.5"></path><path d="M1124.36 199.62L1124.36 199.62" stroke="hsl(228.5, 77.2%, 51.5%)" stroke-width="1.5"></path><path d="M1124.36 199.62L1276.87 234.08" stroke="hsl(228.5, 77.2%, 51.5%)" stroke-width="1.5"></path><path d="M1124.36 199.62L1102.97 383.76" stroke="hsl(228.5, 77.2%, 51.5%)" stroke-width="1.5"></path><path d="M1124.36 199.62L1275.23 69.89" stroke="hsl(228.5, 77.2%, 51.5%)" stroke-width="1.5"></path><path d="M1102.97 383.76L1102.97 383.76" stroke="hsl(228.5, 77.2%, 51.5%)" stroke-width="1.5"></path><path d="M1102.97 383.76L1121.08 521.77" stroke="hsl(228.5, 77.2%, 51.5%)" stroke-width="1.5"></path><path d="M1121.08 521.77L1121.08 521.77" stroke="hsl(228.5, 77.2%, 51.5%)" stroke-width="1.5"></path><path d="M1121.08 521.77L1269.65 557.25" stroke="hsl(228.5, 77.2%, 51.5%)" stroke-width="1.5"></path><path d="M1121.08 521.77L1099.8 705.42" stroke="hsl(228.5, 77.2%, 51.5%)" stroke-width="1.5"></path><path d="M1099.8 705.42L1099.8 705.42" stroke="hsl(228.5, 77.2%, 51.5%)" stroke-width="1.5"></path><path d="M1099.8 705.42L1130.38 793.04" stroke="hsl(228.5, 77.2%, 51.5%)" stroke-width="1.5"></path><path d="M1099.8 705.42L1002.32 826.46" stroke="hsl(228.5, 77.2%, 51.5%)" stroke-width="1.5"></path><path d="M1099.8 705.42L1008.97 562.37" stroke="hsl(228.5, 77.2%, 51.5%)" stroke-width="1.5"></path><path d="M1099.8 705.42L1277.51 661.31" stroke="hsl(228.5, 77.2%, 51.5%)" stroke-width="1.5"></path><path d="M1130.38 793.04L1130.38 793.04" stroke="hsl(228.5, 77.2%, 51.5%)" stroke-width="1.5"></path><path d="M1121.07 981.02L1121.07 981.02" stroke="hsl(228.5, 77.2%, 51.5%)" stroke-width="1.5"></path><path d="M1250.15 -86.72L1250.15 -86.72" stroke="hsl(228.5, 77.2%, 51.5%)" stroke-width="1.5"></path><path d="M1250.15 -86.72L1275.23 69.89" stroke="hsl(228.5, 77.2%, 51.5%)" stroke-width="1.5"></path><path d="M1275.23 69.89L1275.23 69.89" stroke="hsl(228.5, 77.2%, 51.5%)" stroke-width="1.5"></path><path d="M1276.87 234.08L1276.87 234.08" stroke="hsl(228.5, 77.2%, 51.5%)" stroke-width="1.5"></path><path d="M1276.87 234.08L1275.23 69.89" stroke="hsl(228.5, 77.2%, 51.5%)" stroke-width="1.5"></path><path d="M1269.65 557.25L1269.65 557.25" stroke="hsl(228.5, 77.2%, 51.5%)" stroke-width="1.5"></path><path d="M1269.65 557.25L1277.51 661.31" stroke="hsl(228.5, 77.2%, 51.5%)" stroke-width="1.5"></path><path d="M1277.51 661.31L1277.51 661.31" stroke="hsl(228.5, 77.2%, 51.5%)" stroke-width="1.5"></path><path d="M1277.51 661.31L1423.57 662.67" stroke="hsl(228.5, 77.2%, 51.5%)" stroke-width="1.5"></path><path d="M1277.51 661.31L1130.38 793.04" stroke="hsl(228.5, 77.2%, 51.5%)" stroke-width="1.5"></path><path d="M1277.51 661.31L1121.08 521.77" stroke="hsl(228.5, 77.2%, 51.5%)" stroke-width="1.5"></path><path d="M1265.38 972.64L1265.38 972.64" stroke="hsl(228.5, 77.2%, 51.5%)" stroke-width="1.5"></path><path d="M1265.38 972.64L1121.07 981.02" stroke="hsl(228.5, 77.2%, 51.5%)" stroke-width="1.5"></path><path d="M1265.38 972.64L1462.12 941.21" stroke="hsl(228.5, 77.2%, 51.5%)" stroke-width="1.5"></path><path d="M1448.49 250.82L1448.49 250.82" stroke="hsl(228.5, 77.2%, 51.5%)" stroke-width="1.5"></path><path d="M1448.49 250.82L1606.79 207.24" stroke="hsl(228.5, 77.2%, 51.5%)" stroke-width="1.5"></path><path d="M1448.49 250.82L1578.64 363.75" stroke="hsl(228.5, 77.2%, 51.5%)" stroke-width="1.5"></path><path d="M1448.49 250.82L1276.87 234.08" stroke="hsl(228.5, 77.2%, 51.5%)" stroke-width="1.5"></path><path d="M1423.57 662.67L1423.57 662.67" stroke="hsl(228.5, 77.2%, 51.5%)" stroke-width="1.5"></path><path d="M1423.57 662.67L1539.89 677.48" stroke="hsl(228.5, 77.2%, 51.5%)" stroke-width="1.5"></path><path d="M1423.57 662.67L1436.39 808.45" stroke="hsl(228.5, 77.2%, 51.5%)" stroke-width="1.5"></path><path d="M1423.57 662.67L1269.65 557.25" stroke="hsl(228.5, 77.2%, 51.5%)" stroke-width="1.5"></path><path d="M1423.57 662.67L1591.3 796.15" stroke="hsl(228.5, 77.2%, 51.5%)" stroke-width="1.5"></path><path d="M1436.39 808.45L1436.39 808.45" stroke="hsl(228.5, 77.2%, 51.5%)" stroke-width="1.5"></path><path d="M1436.39 808.45L1462.12 941.21" stroke="hsl(228.5, 77.2%, 51.5%)" stroke-width="1.5"></path><path d="M1462.12 941.21L1462.12 941.21" stroke="hsl(228.5, 77.2%, 51.5%)" stroke-width="1.5"></path><path d="M1462.12 941.21L1590.57 968.09" stroke="hsl(228.5, 77.2%, 51.5%)" stroke-width="1.5"></path><path d="M1462.12 941.21L1591.3 796.15" stroke="hsl(228.5, 77.2%, 51.5%)" stroke-width="1.5"></path><path d="M1562.17 -79.92L1562.17 -79.92" stroke="hsl(228.5, 77.2%, 51.5%)" stroke-width="1.5"></path><path d="M1562.17 -79.92L1594.51 39.6" stroke="hsl(228.5, 77.2%, 51.5%)" stroke-width="1.5"></path><path d="M1562.17 -79.92L1414.9 93.32" stroke="hsl(228.5, 77.2%, 51.5%)" stroke-width="1.5"></path><path d="M1562.17 -79.92L1606.79 207.24" stroke="hsl(228.5, 77.2%, 51.5%)" stroke-width="1.5"></path><path d="M1594.51 39.6L1594.51 39.6" stroke="hsl(228.5, 77.2%, 51.5%)" stroke-width="1.5"></path><path d="M1594.51 39.6L1606.79 207.24" stroke="hsl(228.5, 77.2%, 51.5%)" stroke-width="1.5"></path><path d="M1606.79 207.24L1606.79 207.24" stroke="hsl(228.5, 77.2%, 51.5%)" stroke-width="1.5"></path><path d="M1606.79 207.24L1578.64 363.75" stroke="hsl(228.5, 77.2%, 51.5%)" stroke-width="1.5"></path><path d="M1578.64 363.75L1578.64 363.75" stroke="hsl(228.5, 77.2%, 51.5%)" stroke-width="1.5"></path><path d="M1578.64 363.75L1574.91 498.5" stroke="hsl(228.5, 77.2%, 51.5%)" stroke-width="1.5"></path><path d="M1578.64 363.75L1287.83 361.45" stroke="hsl(228.5, 77.2%, 51.5%)" stroke-width="1.5"></path><path d="M1574.91 498.5L1574.91 498.5" stroke="hsl(228.5, 77.2%, 51.5%)" stroke-width="1.5"></path><path d="M1574.91 498.5L1539.89 677.48" stroke="hsl(228.5, 77.2%, 51.5%)" stroke-width="1.5"></path><path d="M1574.91 498.5L1423.57 662.67" stroke="hsl(228.5, 77.2%, 51.5%)" stroke-width="1.5"></path><path d="M1574.91 498.5L1448.49 250.82" stroke="hsl(228.5, 77.2%, 51.5%)" stroke-width="1.5"></path><path d="M1574.91 498.5L1606.79 207.24" stroke="hsl(228.5, 77.2%, 51.5%)" stroke-width="1.5"></path><path d="M1539.89 677.48L1539.89 677.48" stroke="hsl(228.5, 77.2%, 51.5%)" stroke-width="1.5"></path><path d="M1539.89 677.48L1591.3 796.15" stroke="hsl(228.5, 77.2%, 51.5%)" stroke-width="1.5"></path><path d="M1539.89 677.48L1436.39 808.45" stroke="hsl(228.5, 77.2%, 51.5%)" stroke-width="1.5"></path><path d="M1539.89 677.48L1277.51 661.31" stroke="hsl(228.5, 77.2%, 51.5%)" stroke-width="1.5"></path><path d="M1591.3 796.15L1591.3 796.15" stroke="hsl(228.5, 77.2%, 51.5%)" stroke-width="1.5"></path><path d="M1591.3 796.15L1436.39 808.45" stroke="hsl(228.5, 77.2%, 51.5%)" stroke-width="1.5"></path><path d="M1591.3 796.15L1590.57 968.09" stroke="hsl(228.5, 77.2%, 51.5%)" stroke-width="1.5"></path><path d="M1590.57 968.09L1590.57 968.09" stroke="hsl(228.5, 77.2%, 51.5%)" stroke-width="1.5"></path><path d="M1590.57 968.09L1436.39 808.45" stroke="hsl(228.5, 77.2%, 51.5%)" stroke-width="1.5"></path><path d="M1590.57 968.09L1539.89 677.48" stroke="hsl(228.5, 77.2%, 51.5%)" stroke-width="1.5"></path><path d="M1590.57 968.09L1265.38 972.64" stroke="hsl(228.5, 77.2%, 51.5%)" stroke-width="1.5"></path><circle r="25" cx="-56.19" cy="972.96" fill="url(#SvgjsRadialGradient1791)"></circle><circle r="25" cx="106.25" cy="677.44" fill="url(#SvgjsRadialGradient1791)"></circle><circle r="25" cx="203.57" cy="644.96" fill="url(#SvgjsRadialGradient1791)"></circle><circle r="25" cx="841.45" cy="549.47" fill="url(#SvgjsRadialGradient1791)"></circle><circle r="25" cx="1011.08" cy="965.5" fill="url(#SvgjsRadialGradient1791)"></circle><circle r="25" cx="1287.83" cy="361.45" fill="url(#SvgjsRadialGradient1791)"></circle><circle r="25" cx="1253.94" cy="855.4" fill="url(#SvgjsRadialGradient1791)"></circle><circle r="25" cx="1392.43" cy="-50.35" fill="url(#SvgjsRadialGradient1791)"></circle><circle r="25" cx="1414.9" cy="93.32" fill="url(#SvgjsRadialGradient1791)"></circle><circle r="25" cx="1441.93" cy="379.19" fill="url(#SvgjsRadialGradient1791)"></circle><circle r="5" cx="-52.4" cy="687.25" fill="#8b9ad9"></circle><circle r="5" cx="-85" cy="848.91" fill="#8b9ad9"></circle><circle r="5" cx="70.77" cy="861.02" fill="#8b9ad9"></circle><circle r="5" cx="205.45" cy="804.65" fill="#8b9ad9"></circle><circle r="5" cx="232.48" cy="954.48" fill="#8b9ad9"></circle><circle r="5" cx="343.84" cy="676.14" fill="#8b9ad9"></circle><circle r="5" cx="400.45" cy="862.3" fill="#8b9ad9"></circle><circle r="5" cx="410" cy="979.89" fill="#8b9ad9"></circle><circle r="5" cx="555.43" cy="695.55" fill="#8b9ad9"></circle><circle r="5" cx="554.77" cy="828.06" fill="#8b9ad9"></circle><circle r="5" cx="675.19" cy="689.38" fill="#8b9ad9"></circle><circle r="5" cx="692.66" cy="818.52" fill="#8b9ad9"></circle><circle r="5" cx="819.87" cy="668.31" fill="#8b9ad9"></circle><circle r="5" cx="828.28" cy="817.01" fill="#8b9ad9"></circle><circle r="5" cx="825.75" cy="996.54" fill="#8b9ad9"></circle><circle r="5" cx="993.38" cy="402.19" fill="#8b9ad9"></circle><circle r="5" cx="1008.97" cy="562.37" fill="#8b9ad9"></circle><circle r="5" cx="998.17" cy="710.95" fill="#8b9ad9"></circle><circle r="5" cx="1002.32" cy="826.46" fill="#8b9ad9"></circle><circle r="5" cx="1153.92" cy="-99.52" fill="#8b9ad9"></circle><circle r="5" cx="1124.36" cy="199.62" fill="#8b9ad9"></circle><circle r="5" cx="1102.97" cy="383.76" fill="#8b9ad9"></circle><circle r="5" cx="1121.08" cy="521.77" fill="#8b9ad9"></circle><circle r="5" cx="1099.8" cy="705.42" fill="#8b9ad9"></circle><circle r="5" cx="1130.38" cy="793.04" fill="#8b9ad9"></circle><circle r="5" cx="1121.07" cy="981.02" fill="#8b9ad9"></circle><circle r="5" cx="1250.15" cy="-86.72" fill="#8b9ad9"></circle><circle r="5" cx="1275.23" cy="69.89" fill="#8b9ad9"></circle><circle r="5" cx="1276.87" cy="234.08" fill="#8b9ad9"></circle><circle r="5" cx="1269.65" cy="557.25" fill="#8b9ad9"></circle><circle r="5" cx="1277.51" cy="661.31" fill="#8b9ad9"></circle><circle r="5" cx="1265.38" cy="972.64" fill="#8b9ad9"></circle><circle r="5" cx="1448.49" cy="250.82" fill="#8b9ad9"></circle><circle r="5" cx="1423.57" cy="662.67" fill="#8b9ad9"></circle><circle r="5" cx="1436.39" cy="808.45" fill="#8b9ad9"></circle><circle r="5" cx="1462.12" cy="941.21" fill="#8b9ad9"></circle><circle r="5" cx="1562.17" cy="-79.92" fill="#8b9ad9"></circle><circle r="5" cx="1594.51" cy="39.6" fill="#8b9ad9"></circle><circle r="5" cx="1606.79" cy="207.24" fill="#8b9ad9"></circle><circle r="5" cx="1578.64" cy="363.75" fill="#8b9ad9"></circle><circle r="5" cx="1574.91" cy="498.5" fill="#8b9ad9"></circle><circle r="5" cx="1539.89" cy="677.48" fill="#8b9ad9"></circle><circle r="5" cx="1591.3" cy="796.15" fill="#8b9ad9"></circle><circle r="5" cx="1590.57" cy="968.09" fill="#8b9ad9"></circle></g><defs><mask id="SvgjsMask1789"><rect width="1440" height="800" fill="#ffffff"></rect></mask><linearGradient x1="11.11%" y1="-20%" x2="88.89%" y2="120%" gradientUnits="userSpaceOnUse" id="SvgjsLinearGradient1790"><stop stop-color="#0e2a47" offset="0"></stop><stop stop-color="#00459e" offset="1"></stop></linearGradient><radialGradient id="SvgjsRadialGradient1791"><stop stop-color="#ffffff" offset="0.1"></stop><stop stop-color="#1735b3" offset="0.2"></stop><stop stop-color="rgba(23, 53, 179, 0)" offset="1"></stop></radialGradient></defs></svg>